<svg width="299" height="59" viewBox="0 0 299 59" fill="none" xmlns="http://www.w3.org/2000/svg">
<g filter="url(#filter0_d_22_33)">
<path d="M47.625 48.2969C46.875 48.6094 46.1302 48.8958 45.3906 49.1562C44.6615 49.4167 43.901 49.6406 43.1094 49.8281C42.3177 50.0156 41.4844 50.1615 40.6094 50.2656C39.7344 50.3698 38.7812 50.4219 37.75 50.4219C36.4792 50.4219 35.2552 50.3177 34.0781 50.1094C32.9115 49.901 31.8229 49.5885 30.8125 49.1719C29.8021 48.7552 28.8854 48.2396 28.0625 47.625C27.2396 47 26.5312 46.276 25.9375 45.4531C25.3542 44.6302 24.901 43.7031 24.5781 42.6719C24.2656 41.6406 24.1094 40.5104 24.1094 39.2812C24.1094 38.0521 24.2656 36.9219 24.5781 35.8906C24.901 34.8594 25.3542 33.9323 25.9375 33.1094C26.5312 32.2865 27.2396 31.5677 28.0625 30.9531C28.8854 30.3281 29.8021 29.8073 30.8125 29.3906C31.8229 28.974 32.9115 28.6615 34.0781 28.4531C35.2448 28.2448 36.4688 28.1406 37.75 28.1406C38.7812 28.1406 39.7344 28.1927 40.6094 28.2969C41.4844 28.401 42.3177 28.5469 43.1094 28.7344C43.901 28.9219 44.6615 29.1458 45.3906 29.4062C46.1302 29.6562 46.875 29.9375 47.625 30.25V32.5937C47.0312 32.2187 46.3958 31.8646 45.7188 31.5312C45.0417 31.1979 44.3073 30.9062 43.5156 30.6562C42.7344 30.4062 41.8958 30.2083 41 30.0625C40.1042 29.9167 39.1458 29.8437 38.125 29.8437C36.0625 29.8437 34.276 30.0677 32.7656 30.5156C31.2552 30.9635 30.0052 31.599 29.0156 32.4219C28.0365 33.2344 27.3073 34.224 26.8281 35.3906C26.3594 36.5469 26.125 37.8437 26.125 39.2812C26.125 40.7187 26.3594 42.0156 26.8281 43.1719C27.3073 44.3281 28.0365 45.3177 29.0156 46.1406C30.0052 46.9531 31.2552 47.5833 32.7656 48.0312C34.276 48.4687 36.0625 48.6875 38.125 48.6875C39.1458 48.6875 40.1094 48.6146 41.0156 48.4687C41.9323 48.3229 42.7865 48.125 43.5781 47.875C44.3802 47.625 45.1146 47.3385 45.7812 47.0156C46.4583 46.6823 47.0729 46.3333 47.625 45.9687V48.2969ZM55.375 40.8125V50H53.4219V28.5312H64.1094C65.7448 28.5312 67.1458 28.6615 68.3125 28.9219C69.4792 29.1719 70.4323 29.5573 71.1719 30.0781C71.9219 30.5885 72.4688 31.2292 72.8125 32C73.1562 32.7708 73.3281 33.6719 73.3281 34.7031C73.3281 36.3073 72.9062 37.5937 72.0625 38.5625C71.2188 39.5208 69.8594 40.1771 67.9844 40.5312L75.3125 50H72.8594L65.9375 40.75C65.6458 40.7708 65.349 40.7865 65.0469 40.7969C64.7448 40.8073 64.4323 40.8125 64.1094 40.8125H55.375ZM71.3125 34.7031C71.3125 33.7865 71.151 33.0469 70.8281 32.4844C70.5052 31.9115 69.9792 31.4687 69.25 31.1562C68.5208 30.8437 67.5625 30.6354 66.375 30.5312C65.1979 30.4167 63.75 30.3594 62.0312 30.3594H55.375V38.9844H61.9688C63.6875 38.9844 65.1406 38.9375 66.3281 38.8437C67.5156 38.7396 68.4792 38.5365 69.2188 38.2344C69.9583 37.9219 70.4896 37.4896 70.8125 36.9375C71.1458 36.375 71.3125 35.6302 71.3125 34.7031ZM99.7344 50L96.7812 44.3437H82.2031L79.25 50H77.1094L88.3438 28.5312H90.6406L101.875 50H99.7344ZM89.5 30.4219L83.1562 42.5469H95.8281L89.5 30.4219ZM108.062 30.3594V37.75H122.344V39.5625H108.062V50H106.109V28.5312H123.109V30.3594H108.062ZM136.844 30.3125V50H134.906V30.3125H125.141V28.5312H146.609V30.3125H136.844ZM168.172 31.7031C167.766 31.5052 167.297 31.2969 166.766 31.0781C166.234 30.849 165.625 30.6458 164.938 30.4687C164.26 30.2917 163.495 30.1458 162.641 30.0312C161.786 29.9062 160.839 29.8437 159.797 29.8437C158.536 29.8437 157.411 29.9167 156.422 30.0625C155.443 30.2083 154.609 30.4375 153.922 30.75C153.245 31.0521 152.724 31.4375 152.359 31.9062C152.005 32.375 151.828 32.9323 151.828 33.5781C151.828 34.1198 151.995 34.5937 152.328 35C152.672 35.4062 153.13 35.7656 153.703 36.0781C154.286 36.3906 154.964 36.6771 155.734 36.9375C156.516 37.1875 157.339 37.4271 158.203 37.6562C159.078 37.875 159.974 38.099 160.891 38.3281C161.818 38.5573 162.714 38.8073 163.578 39.0781C164.453 39.3385 165.276 39.6354 166.047 39.9687C166.828 40.2917 167.505 40.6719 168.078 41.1094C168.661 41.5469 169.12 42.0469 169.453 42.6094C169.797 43.1719 169.969 43.8229 169.969 44.5625C169.969 45.3646 169.818 46.0677 169.516 46.6719C169.214 47.2656 168.802 47.7812 168.281 48.2187C167.771 48.6458 167.167 49.0052 166.469 49.2969C165.781 49.5781 165.042 49.8021 164.25 49.9687C163.469 50.1354 162.656 50.25 161.812 50.3125C160.979 50.3854 160.156 50.4219 159.344 50.4219C157.479 50.4219 155.786 50.2865 154.266 50.0156C152.755 49.7448 151.312 49.375 149.938 48.9062V46.5156C151.354 47.3594 152.849 47.9375 154.422 48.25C156.005 48.5625 157.667 48.7187 159.406 48.7187C160.635 48.7187 161.771 48.6458 162.812 48.5C163.854 48.3542 164.755 48.125 165.516 47.8125C166.276 47.4896 166.865 47.0729 167.281 46.5625C167.708 46.0521 167.922 45.4271 167.922 44.6875C167.922 44.0937 167.75 43.5729 167.406 43.125C167.073 42.6771 166.615 42.2865 166.031 41.9531C165.458 41.6094 164.781 41.3073 164 41.0469C163.229 40.7865 162.411 40.5469 161.547 40.3281C160.682 40.099 159.786 39.8802 158.859 39.6719C157.943 39.4531 157.052 39.2187 156.188 38.9687C155.323 38.7187 154.5 38.4375 153.719 38.125C152.948 37.8125 152.271 37.4479 151.688 37.0312C151.115 36.6042 150.656 36.1146 150.312 35.5625C149.979 35.0104 149.812 34.3698 149.812 33.6406C149.812 32.9219 149.948 32.2865 150.219 31.7344C150.49 31.1719 150.859 30.6875 151.328 30.2812C151.807 29.875 152.365 29.5365 153 29.2656C153.635 28.9844 154.312 28.7656 155.031 28.6094C155.76 28.4427 156.516 28.3229 157.297 28.25C158.078 28.1771 158.849 28.1406 159.609 28.1406C160.443 28.1406 161.229 28.1771 161.969 28.25C162.719 28.3229 163.438 28.4219 164.125 28.5469C164.823 28.6615 165.5 28.7969 166.156 28.9531C166.823 29.1094 167.495 29.276 168.172 29.4531V31.7031ZM186.906 50H183.984L173.266 28.5312H175.453L185.5 48.6562L195.547 28.5312H197.719L186.906 50ZM202.203 50V28.5312H204.156V50H202.203ZM211.391 50V28.5312H213.344V48.1719H229.031V50H211.391ZM233.828 50V28.5312H235.781V48.1719H251.469V50H233.828ZM275.922 50L272.969 44.3437H258.391L255.438 50H253.297L264.531 28.5312H266.828L278.062 50H275.922ZM265.688 30.4219L259.344 42.5469H272.016L265.688 30.4219Z" fill="#4697D2"/>
</g>
<g filter="url(#filter1_d_22_33)">
<path d="M5.73002 24.0371L149.5 0.999999" stroke="#4697D2" stroke-width="2" stroke-linecap="round"/>
</g>
<g filter="url(#filter2_d_22_33)">
<path d="M293.27 24.0371L149.5 0.999991" stroke="#4697D2" stroke-width="2" stroke-linecap="round"/>
</g>
<defs>
<filter id="filter0_d_22_33" x="20.1094" y="28.1406" width="261.953" height="30.2812" filterUnits="userSpaceOnUse" color-interpolation-filters="sRGB">
<feFlood flood-opacity="0" result="BackgroundImageFix"/>
<feColorMatrix in="SourceAlpha" type="matrix" values="0 0 0 0 0 0 0 0 0 0 0 0 0 0 0 0 0 0 127 0" result="hardAlpha"/>
<feOffset dy="4"/>
<feGaussianBlur stdDeviation="2"/>
<feComposite in2="hardAlpha" operator="out"/>
<feColorMatrix type="matrix" values="0 0 0 0 0 0 0 0 0 0 0 0 0 0 0 0 0 0 0.25 0"/>
<feBlend mode="normal" in2="BackgroundImageFix" result="effect1_dropShadow_22_33"/>
<feBlend mode="normal" in="SourceGraphic" in2="effect1_dropShadow_22_33" result="shape"/>
</filter>
<filter id="filter1_d_22_33" x="0.705933" y="0.0242872" width="153.818" height="32.9886" filterUnits="userSpaceOnUse" color-interpolation-filters="sRGB">
<feFlood flood-opacity="0" result="BackgroundImageFix"/>
<feColorMatrix in="SourceAlpha" type="matrix" values="0 0 0 0 0 0 0 0 0 0 0 0 0 0 0 0 0 0 127 0" result="hardAlpha"/>
<feOffset dy="4"/>
<feGaussianBlur stdDeviation="2"/>
<feComposite in2="hardAlpha" operator="out"/>
<feColorMatrix type="matrix" values="0 0 0 0 0 0 0 0 0 0 0 0 0 0 0 0 0 0 0.25 0"/>
<feBlend mode="normal" in2="BackgroundImageFix" result="effect1_dropShadow_22_33"/>
<feBlend mode="normal" in="SourceGraphic" in2="effect1_dropShadow_22_33" result="shape"/>
</filter>
<filter id="filter2_d_22_33" x="144.476" y="0.0242796" width="153.818" height="32.9886" filterUnits="userSpaceOnUse" color-interpolation-filters="sRGB">
<feFlood flood-opacity="0" result="BackgroundImageFix"/>
<feColorMatrix in="SourceAlpha" type="matrix" values="0 0 0 0 0 0 0 0 0 0 0 0 0 0 0 0 0 0 127 0" result="hardAlpha"/>
<feOffset dy="4"/>
<feGaussianBlur stdDeviation="2"/>
<feComposite in2="hardAlpha" operator="out"/>
<feColorMatrix type="matrix" values="0 0 0 0 0 0 0 0 0 0 0 0 0 0 0 0 0 0 0.25 0"/>
<feBlend mode="normal" in2="BackgroundImageFix" result="effect1_dropShadow_22_33"/>
<feBlend mode="normal" in="SourceGraphic" in2="effect1_dropShadow_22_33" result="shape"/>
</filter>
</defs>
</svg>
